<?xml version="1.0" encoding="UTF-8"?>
<svg width="257px" height="68px" viewBox="0 0 257 68" version="1.1" xmlns="http://www.w3.org/2000/svg" xmlns:xlink="http://www.w3.org/1999/xlink">
    <title>Logotype</title>
    <defs>
        <path d="M14.1013686,-5.69712169e-16 L27.8986314,5.69712169e-16 C32.8019845,-3.31019177e-16 34.5800588,0.510540861 36.3726514,1.46922987 C38.165244,2.42791888 39.5720811,3.83475604 40.5307701,5.62734863 C41.4894591,7.41994122 42,9.19801553 42,14.1013686 L42,25 L42,25 L25,42 L14.1013686,42 C9.19801553,42 7.41994122,41.4894591 5.62734863,40.5307701 C3.83475604,39.5720811 2.42791888,38.165244 1.46922987,36.3726514 C0.510540861,34.5800588 -3.06217299e-16,32.8019845 5.27026026e-16,27.8986314 L3.79808113e-16,14.1013686 C-2.20679451e-16,9.19801553 0.510540861,7.41994122 1.46922987,5.62734863 C2.42791888,3.83475604 3.83475604,2.42791888 5.62734863,1.46922987 C7.41994122,0.510540861 9.19801553,3.31019177e-16 14.1013686,-5.69712169e-16 Z" id="path-1"></path>
    </defs>
    <g id="Logotype" stroke="none" stroke-width="1" fill="none" fill-rule="evenodd">
        <rect id="Rectangle" fill="#FFFFFF" fill-rule="nonzero" x="0" y="0" width="257" height="68"></rect>
        <g id="Group" transform="translate(1.000000, 1.000000)">
            <path d="M11.6817034,63.9000722 L11.6817034,0.1 L0,0.1 L0,63.9000722 L11.6817034,63.9000722 Z M41.6747263,65.3378203 C55.5130518,65.3378203 65.4874293,55.4533021 65.4874293,40.8961025 C65.4874293,26.3389029 55.5130518,16.4543847 41.6747263,16.4543847 C27.7465416,16.4543847 17.7721641,26.3389029 17.7721641,40.8961025 C17.7721641,55.4533021 27.7465416,65.3378203 41.6747263,65.3378203 Z M41.6747263,55.4533021 C34.3961265,55.4533021 29.6335859,49.7921689 29.6335859,40.8961025 C29.6335859,32.1797546 34.3961265,26.3389029 41.6747263,26.3389029 C48.8634669,26.3389029 53.6260075,32.1797546 53.6260075,40.8961025 C53.6260075,49.7921689 48.8634669,55.4533021 41.6747263,55.4533021 Z M96.8283412,65.1581018 C108.510045,65.1581018 117.226392,55.6330206 117.226392,40.8961025 C117.226392,26.3389029 108.689763,16.6341032 96.9182004,16.6341032 C90.9874895,16.6341032 86.4046674,18.7008661 83.0798749,22.8343919 L83.0798749,0.1 L71.3981715,0.1 L71.3981715,63.9000722 L82.2711416,63.9000722 L82.2711416,58.0592205 C85.5060748,62.8217611 90.3584747,65.1581018 96.8283412,65.1581018 Z M94.1325635,55.0040058 C87.3931192,55.0040058 82.6305786,49.6124504 82.6305786,40.8961025 C82.6305786,32.2696139 87.3931192,26.6983399 94.2224227,26.6983399 C101.051726,26.6983399 105.364971,32.2696139 105.364971,40.8961025 C105.364971,49.5225911 100.872008,55.0040058 94.1325635,55.0040058 Z M145.512089,65.3378203 C153.329845,65.3378203 159.530134,62.9116204 166,56.3518946 L159.440274,49.1631541 C156.564778,51.589354 154.228437,53.2068206 152.341393,54.1054132 C150.544208,55.0040058 148.387586,55.4533021 145.781667,55.4533021 C138.14363,55.4533021 133.920245,51.0501985 132.841934,43.9513172 L165.820281,43.9513172 C165.910141,42.6034284 166,41.075821 166,39.3684951 C166,24.9910141 158.272104,16.4543847 144.523638,16.4543847 C130.236016,16.4543847 121.429809,26.8780585 121.429809,41.1656803 C121.429809,55.8127391 130.685312,65.3378203 145.512089,65.3378203 Z M154.587874,35.5944064 L133.111512,35.5944064 C134.459401,29.3941176 138.14363,25.6200289 144.164201,25.6200289 C150.364489,25.6200289 154.138578,29.3941176 154.587874,35.5944064 Z" id="lobe" fill-opacity="0.80345826" fill="#000000" fill-rule="nonzero"></path>
            <g transform="translate(189.000000, 0.000000)" id="Icon">
                <g transform="translate(24.000000, 24.000000)" fill="#F34747" fill-rule="nonzero" id="Rectangle">
                    <path d="M16.7147898,0 L27.8986314,-3.3712197e-16 C32.8019845,1.95877573e-16 34.5800588,0.510540861 36.3726514,1.46922987 C38.165244,2.42791888 39.5720811,3.83475604 40.5307701,5.62734863 C41.4894591,7.41994122 42,9.19801553 42,14.1013686 L42,27.8986314 C42,32.8019845 41.4894591,34.5800588 40.5307701,36.3726514 C39.5720811,38.165244 38.165244,39.5720811 36.3726514,40.5307701 C34.5800588,41.4894591 32.8019845,42 27.8986314,42 L14.1013686,42 C9.19801553,42 7.41994122,41.4894591 5.62734863,40.5307701 C3.83475604,39.5720811 2.42791888,38.165244 1.46922987,36.3726514 C0.510540861,34.5800588 -3.06217299e-16,32.8019845 5.27026026e-16,27.8986314 L0,16.8515713 L0,16.8515713 L16.7147898,0 Z" transform="translate(21.000000, 21.000000) rotate(-360.000000) translate(-21.000000, -21.000000) "></path>
                </g>
                <g>
                    <mask id="mask-2" fill="white">
                        <use xlink:href="#path-1"></use>
                    </mask>
                    <use id="Rectangle" fill="#00DDB3" fill-rule="nonzero" transform="translate(21.000000, 21.000000) rotate(-360.000000) translate(-21.000000, -21.000000) " xlink:href="#path-1"></use>
                </g>
                <path d="M41.999,24 L42,27.8986314 C42,32.8019845 41.4894591,34.5800588 40.5307701,36.3726514 C39.5720811,38.165244 38.165244,39.5720811 36.3726514,40.5307701 C34.5800588,41.4894591 32.8019845,42 27.8986314,42 L24,42 L24,38.1013686 C24,33.1980155 24.5105409,31.4199412 25.4692299,29.6273486 C26.4279189,27.834756 27.834756,26.4279189 29.6273486,25.4692299 C31.4199412,24.5105409 33.1980155,24 38.1013686,24 L41.999,24 Z" id="Combined-Shape" fill="#333333" fill-rule="nonzero"></path>
            </g>
        </g>
    </g>
</svg>